<svg xmlns="http://www.w3.org/2000/svg" viewBox="0 0 695.15 235.609" fill="#fff">
<path d="M462.66 0c-1.559 0-3.078.05-4.556.145a73.088 73.088 0 00-3.745-.106c-12.511 0-22.457 3.112-29.328 8.754-6.87 5.642-10.517 13.82-10.511 23.277 0 7.285 1.913 14.043 7.55 19.582 5.638 5.54 14.739 9.846 28.994 13.186h.004l.006.002c8.74 2 14.198 3.922 17.194 6.07 2.996 2.148 3.842 4.256 3.842 8.13 0 3.308-.996 5.655-3.266 7.415-1.677 1.3-4.2 2.278-7.705 2.701-3.72-.43-6.74-1.454-9.096-3.05-3.19-2.164-5.322-5.381-6.435-10.168l-.36-1.547h-34.597l.285 2.25c1.249 9.849 5.587 18.331 13.068 24.242 7.481 5.91 17.989 9.217 31.406 9.217a82.15 82.15 0 004.198-.114c1.32.07 2.661.114 4.043.114 13.933 0 24.766-3.323 32.183-9.284 7.417-5.96 11.256-14.569 11.256-24.425 0-7.63-1.813-14.751-7.601-20.66-5.789-5.91-15.278-10.56-30.432-14.196l-.016-.004-.015-.004c-8.311-1.854-13.437-3.526-16.17-5.326-2.734-1.8-3.365-3.36-3.365-6.63 0-3.175 1.03-5.192 3.029-6.68 1.333-.993 3.21-1.716 5.576-2.094 3.721.551 6.139 1.824 7.809 3.4 2.245 2.12 3.279 4.978 3.84 7.98l.304 1.634h34.613l-.21-2.194c-.771-7.972-4.098-15.941-10.87-21.869C486.81 3.82 476.689.021 462.662 0zM1 1.54v107.07h50.29c16.26 0 29.543-5.912 38.66-15.77C99.064 82.98 104 69.26 104 53.8c0-15.691-5.115-28.823-14.203-37.984C80.709 6.656 67.715 1.54 52.32 1.54h-43zm133.268 0l-36.36 107.07h34.533l7.932-23.79h26.549l8.52 23.79h36.052L173.412 1.54h-30.846zm77.242 0v107.065l1.996.004 22.295.045v-.017l8.27.017V75.23c0-7.915-.076-15.817-.21-23.162a1557.99 1557.99 0 006.612 12.391c8.626 15.993 17.98 33.013 23.513 43.111l.569 1.04h37.635V1.54h-32.47v32.51c0 6.836.048 13.574.17 19.98a1181.606 1181.606 0 00-4.904-8.97c-8.16-14.769-17.323-31.002-23.75-42.496l-.572-1.025h-30.853zm112.94 0v107.07h85.46V86.36h-51.46V64.18h49.371V41.79H358.45v-18h51.46V1.54h-77.15zm239.26 0v73.5c0 3.748-.463 7.061-1.792 9.187-1.04 1.662-2.55 2.837-5.37 3.275a91.117 91.117 0 01-4.353-.379l-2.224-.252v.723a90.992 90.992 0 01-6.026-.471l-2.224-.252v21.389l1.437.42c4.127 1.207 10.63 1.42 14.473 1.42 1.309 0 2.57-.043 3.795-.116 1.643.072 3.213.116 4.465.116 11.608 0 19.938-2.842 25.177-9.069 5.24-6.226 7.182-15.372 7.182-27.48l.041-72.012H572zm46.03 0v107.07h85.34V86.36h-51.35V64.18h49.37V41.79h-49.37v-18h51.42V1.54H618zM5 5.54h4.32v99.07H5zm132.133 0h4.076l-33.643 99.07h-4.074zm78.377 0h4.3v99.081l-4.3-.008zm68.21 0H288v28.5c0 12.644-.007 25.846.51 36.312a651.529 651.529 0 00-4.574-8.774c-.202-8.557-.215-18.183-.215-27.527zm44.73 0h4.31v99.07h-4.31zm239.26 0H572v69.5c0 3.745-.469 7.058-1.805 9.185-1.09 1.737-2.702 2.94-5.771 3.328.324-.381.62-.783.885-1.205 2.038-3.26 2.402-7.278 2.402-11.309zm46.03 0H618v99.07h-4.26zM434.95 7.505c-.557.398-1.101.806-1.622 1.234-6.868 5.642-10.508 13.832-10.508 23.33 0 7.285 1.914 14.043 7.553 19.582 1.367 1.343 2.942 2.613 4.74 3.815-4.477-2.046-7.811-4.282-10.24-6.668-4.83-4.746-6.353-10.103-6.353-16.729v-.002c-.005-8.452 3.089-15.288 9.05-20.183 2.089-1.715 4.556-3.185 7.38-4.38zm33.683 13.77c2.476.663 4.254 1.696 5.556 2.923 1.649 1.552 2.641 3.501 3.276 5.612h-4.283c-.734-2.968-1.913-6.048-4.534-8.522l-.015-.014zM35.609 23.49h6.602c9.591 0 15.976 3.533 20.203 9.035 4.227 5.503 6.227 13.15 6.227 21.276 0 9.731-2.166 18.012-6.483 23.744-4.317 5.732-10.722 9.115-20.097 9.115h-6.452zm24.889 1.588c4.337 1.544 7.672 4.134 10.217 7.447 4.226 5.503 6.224 13.15 6.224 21.276 0 9.732-2.161 18.014-6.476 23.746-2.604 3.459-5.976 6.054-10.295 7.574a25.904 25.904 0 005.186-5.17c5.035-6.685 7.287-15.832 7.287-26.15 0-8.775-2.117-17.284-7.055-23.711a26.033 26.033 0 00-5.088-5.012zm96.826 1.295c2.566 8.587 6.253 19.84 11.742 36.197h-4.087c-4.047-12.056-7.198-21.506-9.657-29.17a538.951 538.951 0 002.002-7.027zm86.069 8.793c3.77 7.54 8.968 17.475 15.341 29.293 7.966 14.77 16.266 29.89 21.891 40.15h-3.697c-5.58-10.179-14.526-26.462-22.934-42.05a1952.802 1952.802 0 01-10.334-19.403 619.55 619.55 0 00-.267-7.99zm-90.059 4.945c2.03 6.27 4.445 13.56 7.432 22.46h-14.332a2052.145 2052.145 0 006.9-22.46zm318.113 28.21c2.165.838 3.872 1.694 5.121 2.59 2.996 2.147 3.842 4.255 3.842 8.128 0 3.31-.997 5.656-3.264 7.416-1.153.895-2.708 1.635-4.707 2.15 2.486-2.488 3.67-5.881 3.67-9.566 0-4.292-1.388-7.984-4.662-10.719zM415.38 78.39h4.057c1.525 9.103 5.779 16.934 12.812 22.492.584.461 1.192.9 1.813 1.33-2.852-1.235-5.38-2.733-7.577-4.469-6.042-4.774-9.636-11.403-11.105-19.353zm-244.21 6.43h4.054l7.095 19.788h-4.06zm374.552 6.406c1.416.126 2.832.246 4.25.334v14.095c-1.54-.16-3.035-.351-4.25-.601zM163.859 125.5c-16.485 0-29.777 6.003-38.836 15.932-9.058 9.929-13.873 23.691-13.873 39.068 0 15.19 4.337 28.958 13 38.97 8.664 10.013 21.657 16.14 38.37 16.14a66.02 66.02 0 004.671-.182 64.94 64.94 0 004.649.181c17.246 0 30.571-6.43 39.435-16.62 8.865-10.192 13.286-24.03 13.286-38.79 0-16.184-4.93-29.881-13.887-39.53-8.958-9.647-21.906-15.148-37.48-15.169h-.005c-1.606 0-3.172.073-4.716.186a63.589 63.589 0 00-4.61-.186h-.002zM0 127.04v107.073l2.004-.004 7.316-.013v.017l2.004-.004 22.346-.043V200.66c0-7.114-.065-14.255-.182-20.961 1.724 3.255 3.525 6.633 5.477 10.254 8.625 16.004 17.978 33.026 23.512 43.119l.568 1.037h38.695V127.04H68.22v32.522c0 6.152.043 12.217.14 18.044a1264.46 1264.46 0 00-3.864-7.044c-8.16-14.77-17.324-31.003-23.75-42.497l-.572-1.025H9.32zm219.385 0l37.76 107.07h38.476l38.852-107.07h-36.36l-16.61 49.231a662.979 662.979 0 00-4.472 13.758A415.186 415.186 0 00272.635 176l-.008-.023-15.697-48.938h-28.215zm155.965 0v107.07h51.27c16.264 0 29.55-5.912 38.667-15.77 9.117-9.859 14.053-23.58 14.053-39.04 0-15.686-5.111-28.818-14.195-37.98-9.085-9.161-22.075-14.28-37.475-14.28h-43zm136.537 0l-36.358 107.07h35.553l7.93-23.78h25.521l8.53 23.78h37.061L552.05 127.04h-30.844zm80.533 0v107.073l2.004-.004 7.316-.013v.011l1.996.002 22.264.033V200.73c0-7.183-.058-14.4-.168-21.168 1.747 3.296 3.57 6.718 5.55 10.391 8.629 16.004 17.98 33.026 23.514 43.12l.569 1.036h38.725V127.04h-33.56v32.522c0 6.146.041 12.203.138 18.025a1259.36 1259.36 0 00-3.852-7.025c-8.16-14.77-17.324-31.003-23.75-42.497l-.572-1.025H601.74zM4 131.04h5.32v99.056l-5.32.01zm68.22 0h5.32v28.52c0 13.224.163 26.153.747 36.83a631.64 631.64 0 00-5.904-11.318c-.157-8.036-.162-16.907-.162-25.511zm152.815 0h5.09l34.94 99.07h-5.09zm75.951 0h5.108l-15.27 45.231c-3.932 11.67-6.993 21.562-9.281 30.288a414.942 414.942 0 00-2.549-9.649c1.821-5.92 3.953-12.393 6.3-19.361zm78.364 0h5.32v99.07h-5.32zm135.404 0h5.096l-33.643 99.07h-5.096zm81.666 0h5.32v99.056l-5.32.01zm68.21 0H670v28.52c0 13.242.16 26.19.72 36.868a623.439 623.439 0 00-5.925-11.37c-.158-8.032-.164-16.898-.164-25.497zm-519.27 1.526a46.67 46.67 0 00-11.006 8.866c-9.059 9.929-13.874 23.691-13.874 39.068 0 15.19 4.334 28.958 12.995 38.97a44.42 44.42 0 0011.066 9.217c-7.061-2.53-12.837-6.6-17.365-11.833-7.907-9.138-12.026-21.925-12.026-36.354 0-14.543 4.535-27.28 12.829-36.371 4.634-5.08 10.447-9.048 17.38-11.563zm22.234 15.414c6.562.986 11.23 4.154 14.572 8.9 4.074 5.787 6.064 14.104 6.064 23.63 0 8.94-1.745 17.327-5.671 23.297-3.218 4.89-7.786 8.276-14.495 9.341-6.22-1.013-10.841-4.178-14.226-8.959-4.16-5.874-6.328-14.341-6.328-24.15 0-9.73 1.995-17.923 6.006-23.537 3.254-4.556 7.77-7.553 14.078-8.522zm11.773.499c5.273 1.346 9.18 4.27 12.084 8.392 4.076 5.786 6.069 14.104 6.069 23.629 0 8.94-1.744 17.328-5.672 23.297-2.857 4.342-6.785 7.493-12.325 8.892 2.543-1.818 4.668-4.085 6.377-6.683 4.561-6.933 6.33-16.046 6.33-25.496 0-10.075-2.044-19.188-6.792-25.932a25.172 25.172 0 00-6.07-6.1zM411 148.99h5.54c9.59 0 15.973 3.533 20.198 9.035 4.225 5.503 6.223 13.15 6.223 21.276 0 9.732-2.164 18.014-6.479 23.746-4.314 5.732-10.716 9.113-20.091 9.113H411zm22.982.985c5.289 1.412 9.217 4.265 12.123 8.05 4.227 5.503 6.225 13.15 6.225 21.276 0 9.731-2.163 18.012-6.48 23.744-2.97 3.943-6.93 6.775-12.164 8.158a25.811 25.811 0 005.994-5.752c5.032-6.686 7.28-15.832 7.28-26.15 0-8.774-2.113-17.284-7.048-23.711a25.962 25.962 0 00-5.93-5.615zm101.98 1.869c2.566 8.586 6.254 19.838 11.743 36.195H542.6c-3.742-11.15-6.748-20.143-9.127-27.5a586.45 586.45 0 002.49-8.695zm89.354 8.672c3.766 7.544 9 17.549 15.418 29.449 7.965 14.768 16.263 29.887 21.889 40.144h-4.785c-5.58-10.174-14.526-26.456-22.936-42.054a2002.227 2002.227 0 01-9.257-17.375c-.093-3.637-.2-7.099-.329-10.164zm-592.36.119c3.772 7.561 8.968 17.503 15.337 29.318 7.966 14.778 16.265 29.9 21.89 40.156h-4.765c-5.58-10.174-14.525-26.456-22.932-42.054a1979.366 1979.366 0 01-9.193-17.262c-.097-3.63-.208-7.087-.338-10.158zm498.528 6.592a2420.28 2420.28 0 006.9 20.812h-13.31a2195.36 2195.36 0 006.41-20.812zm17.3 43.103h5.077l7.088 19.78h-5.072z"></path>
</svg>
