<svg fill="#363636" xmlns="http://www.w3.org/2000/svg" xmlns:xlink="http://www.w3.org/1999/xlink" version="1.1" x="0px" y="0px" viewBox="0 0 98.805 69.708" enable-background="new 0 0 98.805 69.708" xml:space="preserve"><path d="M42.234,21.687c0.374-0.384,0.763-0.733,1.157-1.06L23.599,9.944l0.537-0.995c0.563-1.044,0.175-2.348-0.87-2.913  c-0.325-0.175-0.675-0.258-1.02-0.258c-0.766,0-1.505,0.409-1.896,1.13l-1.284,2.379l-8.319-4.488  c-0.074-0.984-0.624-1.91-1.558-2.414c-0.451-0.244-0.938-0.36-1.418-0.36c-1.064,0-2.096,0.569-2.637,1.571L4.264,5.212  c-0.786,1.455-0.243,3.27,1.211,4.055c0.45,0.243,0.934,0.357,1.41,0.357c0.511,0,1.015-0.132,1.462-0.379l8.317,4.49l-1.284,2.38  c-0.565,1.046-0.174,2.35,0.871,2.914c0.325,0.176,0.676,0.259,1.021,0.259c0.766,0,1.504-0.409,1.894-1.13l0.621-1.15L38.77,27.254  C39.57,25.017,40.868,23.092,42.234,21.687z"></path><path d="M87.522,15.89c-2.448-2.476-6.223-4.636-11.571-4.584c-9.257,0.662-12.304,6.473-14.556,11.223  c-2.227-4.846-5.94-11.322-15.58-11.223c-3.802,0.243-6.858,1.492-9.207,3.388l8.636,4.661c1.946-1.093,3.999-1.514,5.863-1.126  l-0.41,1.958c-2.192-0.463-4.821,0.623-7.029,2.894c-2.36,2.428-4.497,6.631-3.417,11.145l-1.945,0.465  c-0.454-1.898-0.423-3.741-0.079-5.458l-7.28-3.929c-0.886,6.572,1.537,13.334,4.443,17.393c3.409,4.755,8.364,8.705,12.719,12.488  c4.618,4.017,7.536,5.551,13.403,10.392c5.818-5.351,14.963-11.063,22.566-18.982c3.45-3.739,6.461-7.627,7.444-14.093  C92.574,25.657,91.375,19.78,87.522,15.89z"></path></svg>